<?xml version="1.0" encoding="utf-8"?>
<!-- Generator: Adobe Illustrator 24.2.1, SVG Export Plug-In . SVG Version: 6.00 Build 0)  -->
<svg version="1.1" id="Layer_1" xmlns="http://www.w3.org/2000/svg" xmlns:xlink="http://www.w3.org/1999/xlink" x="0px" y="0px"
	 viewBox="0 0 428 428" style="enable-background:new 0 0 428 428;" xml:space="preserve">
<style type="text/css">
	.st0{fill:#611B0E;}
</style>
<g>
	<path class="st0" d="M313.02,166.39H114.98c-11.31,0-20.48,11.42-20.48,25.5s9.17,25.5,20.48,25.5h198.03
		c11.31,0,20.48-11.42,20.48-25.5S324.33,166.39,313.02,166.39z M148,197.39c0,3.31-2.69,6-6,6h-11c-3.31,0-6-2.69-6-6v-11
		c0-3.31,2.69-6,6-6h11c3.31,0,6,2.69,6,6V197.39z M303,197.39c0,3.31-2.69,6-6,6h-11c-3.31,0-6-2.69-6-6v-11c0-3.31,2.69-6,6-6h11
		c3.31,0,6,2.69,6,6V197.39z"/>
	<path class="st0" d="M275.79,51.62H150.21c-49.54,0-89.71,40.16-89.71,89.71v145.35c0,49.54,40.16,89.71,89.71,89.71h125.59
		c49.54,0,89.71-40.16,89.71-89.71V141.32C365.5,91.78,325.34,51.62,275.79,51.62z M345.72,229.4c-8.34,8.34-22.29,14.85-34.3,14.21
		c-2.59-0.14-5.14-0.07-7.68,0.12c-8.67,1.39-17.36,2.81-26.13,3.08c-7.88,0.24-15.76,0.24-23.64,0.24
		c-15.24,0-30.45,0.42-45.68,0.85c-30.22,0.86-60.58,1.81-90.66-2c-8.76-0.03-16.92-2.23-24.48-6.62c-3.27-2.53-6.54-5.06-9.82-7.58
		c-9.52-8.74-13.64-21.75-14.21-34.3c-0.01-0.33-0.01-0.67-0.01-1.01c-0.84-3.39-1.36-6.89-1.52-10.48
		c-0.54-12.08,5.79-25.88,14.21-34.3c8.8-8.8,21.86-14.21,34.3-14.21c4.26,0,8.35,0.55,12.22,1.57c2.27-0.38,4.58-0.64,6.93-0.8
		c24.68-1.73,49.44-2.16,74.16-1.27c12.19,0.44,24.32,1.17,36.43,2.69c9.43,1.18,18.87,2.34,28.35,1.98c0.2-0.05,0.4-0.08,0.6-0.13
		c7.55-1.83,14.97-1.95,21.92-0.57c3.36-0.75,6.76-1.16,10.12-1.16c17.44,0,31.96,9.14,40.45,22.63
		c8.41,8.69,12.12,20.93,12.65,32.77C360.47,207.19,354.14,220.99,345.72,229.4z"/>
	<path class="st0" d="M312.02,127.15c-77.58-1.26-155.13,2.43-232.71,2.46c-5.21,0-10.16-0.82-14.77-2.33
		c-1.98,9.74-3.04,19.96-3.04,30.48v27.26c0,67.31,43.09,121.87,96.23,121.87h112.53c53.15,0,91.97-52,91.97-119.3v-30.13
		c-1.73-9.98-21.66-19.64-2.27-28.82C342.73,127.79,329.28,127.43,312.02,127.15z M318.42,234.72H110.58c-18.5,0-33.5-19-33.5-42.42
		c0-23.43,15-42.42,33.5-42.42h207.84c18.5,0,33.5,18.99,33.5,42.42C351.92,215.72,336.92,234.72,318.42,234.72z"/>
</g>
<path class="st0" d="M383.17,272.87H408c11.05,0,20-8.95,20-20v-83c0-11.05-8.95-20-20-20h-24.83V272.87z"/>
<path class="st0" d="M44.83,272.87H20c-11.05,0-20-8.95-20-20l0-83c0-11.05,8.95-20,20-20h24.83V272.87z"/>
</svg>
