<?xml version="1.0" encoding="utf-8"?>
<!-- Generator: Adobe Illustrator 24.2.1, SVG Export Plug-In . SVG Version: 6.00 Build 0)  -->
<svg version="1.1" id="Layer_1" xmlns="http://www.w3.org/2000/svg" xmlns:xlink="http://www.w3.org/1999/xlink" x="0px" y="0px"
	 viewBox="0 0 512 512" style="enable-background:new 0 0 512 512;" xml:space="preserve">
<style type="text/css">
	.st0{fill:#611B0E;}
</style>
<g>
	<path class="st0" d="M137.72,184.53v-10.78h235.91v10.44c8.61,1.63,17.37-0.21,26.03-0.67v-14.63c0-11.47-9.69-21.17-21.17-21.17
		H132.86c-11.48,0-21.17,9.69-21.17,21.17v14.78c8.62,0.36,17.23,0.82,25.85,0.85C137.6,184.52,137.66,184.53,137.72,184.53z"/>
	<path class="st0" d="M373.63,183.52v213.55H137.72V264.66c-0.06,0,0.06-80.99,0-80.99c-8.63-0.03-17.42,0.36-26.03,0v218.26
		c0,11.48,9.69,21.17,21.17,21.17h245.63c11.48,0,21.17-9.69,21.17-21.16V183.52C390.87,183.98,382.33,184.66,373.63,183.52z"/>
	<path class="st0" d="M373.96,397.07"/>
	<path class="st0" d="M188.99,271.08c7.18,0,13.02-5.83,13.02-13.02v-20.7c0-7.18-5.83-13.02-13.02-13.02
		c-7.19,0-13.02,5.83-13.02,13.02v20.7C175.97,265.26,181.79,271.08,188.99,271.08L188.99,271.08z M188.99,271.08"/>
	<path class="st0" d="M322.36,271.08c7.19,0,13.02-5.83,13.02-13.02v-20.7c0-7.18-5.83-13.02-13.02-13.02
		c-7.19,0-13.02,5.83-13.02,13.02v20.7C309.34,265.26,315.17,271.08,322.36,271.08L322.36,271.08z M322.36,271.08"/>
	<path class="st0" d="M426.34,416.71c-6.36,20.18-25.24,34.86-47.48,34.86h-64.38c-7.19,0-13.02,5.83-13.02,13.02
		c0,7.19,5.82,13.02,13.02,13.02h64.38c33.24,0,61.51-21.52,71.71-51.36c1.67-4.47,1.93-5.65,2.96-11.48l-25.15-7.89
		C427.65,411.93,427.49,413.11,426.34,416.71z"/>
	<path class="st0" d="M197.55,451.64h-64.38c-22.94,0-42.29-15.61-48.04-36.76c-1.32-5.36-1.41-8.33-1.74-13.05L58.5,414.84
		c1.69,7.1,1.82,7.74,3.25,12.32c10.45,29.39,38.5,50.5,71.43,50.5h64.38c7.19,0,13.02-5.83,13.02-13.02
		C210.57,457.47,204.74,451.64,197.55,451.64z"/>
	<path class="st0" d="M470.32,226.02h-16.83c0,0.01,0-69.32,0-69.32l-24.89,13.02v232.21c0,1.73-0.09,3.44-0.26,5.13l25.15,7.89
		h16.83c22.99,0,41.68-18.71,41.68-41.72V267.74C512,244.74,493.3,226.02,470.32,226.02z M485.97,373.23
		c0,8.65-7.02,15.69-15.65,15.69h-15.69V252.06h15.69c8.63,0,15.65,7.04,15.65,15.69V373.23z"/>
	<path class="st0" d="M83.4,401.94V169.72l-24.89-13.02l0,69.32H41.68C18.7,226.02,0,244.74,0,267.75v105.48
		c0,23.01,18.7,41.73,41.68,41.73h16.83L83.4,401.94z M57.37,388.92H41.68c-8.63,0-15.65-7.04-15.65-15.69V267.75
		c0-8.65,7.02-15.69,15.65-15.69h15.69V388.92z"/>
	<path class="st0" d="M426.71,156.18c1.62,4.79,1.8,7.53,1.88,13.54l24.89-13.02c-0.84-4.37-1.47-6.99-3.05-11.76
		c-10.28-29.69-38.49-51.08-71.62-51.08h-21.11V47.72c0-7.01-5.38-13.04-12.38-13.37c-7.47-0.35-13.65,5.6-13.65,13v46.53H180.32
		V47.71c0-7.01-5.39-13.04-12.4-13.37c-7.47-0.35-13.64,5.61-13.64,13v46.53h-21.11c-33.53,0-62.02,21.9-71.99,52.15
		c0,0-1.41,4.74-2.68,10.68l24.89,13.02c0.11-5.67,0.27-6.18,1.28-11.2c5.09-22.09,24.9-38.61,48.5-38.61h245.63
		C401.58,119.91,420.8,135.28,426.71,156.18z"/>
	<path class="st0" d="M485.97,373.23"/>
	<path class="st0" d="M255.67,451.66c-7.16,0-12.97,5.81-12.97,12.97c0,7.16,5.81,12.97,12.97,12.97h0.07
		c7.16,0,12.94-5.81,12.94-12.97C268.69,457.47,262.84,451.66,255.67,451.66L255.67,451.66z M255.67,451.66"/>
	<path class="st0" d="M299.04,348.86c0-7.19-5.83-13.02-13.02-13.02h-60.7c-7.18,0-13.02,5.83-13.02,13.02
		c0,7.19,5.83,13.02,13.02,13.02h60.7C293.21,361.88,299.04,356.05,299.04,348.86L299.04,348.86z M299.04,348.86"/>
</g>
</svg>
