<?xml version="1.0" encoding="utf-8"?>
<!-- Generator: Adobe Illustrator 24.2.1, SVG Export Plug-In . SVG Version: 6.00 Build 0)  -->
<svg version="1.1" id="Layer_1" xmlns:svgjs="http://svgjs.com/svgjs"
	 xmlns="http://www.w3.org/2000/svg" xmlns:xlink="http://www.w3.org/1999/xlink" x="0px" y="0px" viewBox="0 0 512 469"
	 style="enable-background:new 0 0 512 469;" xml:space="preserve">
<style type="text/css">
	.st0{fill:#FFDCB1;}
</style>
<g transform="matrix(1,0,0,1,0,-5)">
	<path class="st0" d="M133.4,378.1c-34.1,0-64.5-21.9-75.5-54.4l-0.7-2.5c-2.6-8.6-3.7-15.9-3.7-23.1V152.8L1.8,325.4
		c-6.7,25.4,8.5,51.7,33.9,58.7l329.6,88.3c4.1,1.1,8.2,1.6,12.3,1.6c21.2,0,40.6-14.1,46.1-34.9l19.2-61.1H133.4z"/>
	<path class="st0" d="M192,154.2c23.5,0,42.6-19.1,42.6-42.6S215.6,69,192,69s-42.6,19.1-42.6,42.6S168.5,154.2,192,154.2z"/>
	<path class="st0" d="M458.5,5H138.7c-29.4,0-53.3,23.9-53.3,53.3v234.5c0,29.4,23.9,53.3,53.3,53.3h319.8
		c29.4,0,53.3-23.9,53.3-53.3V58.3C511.8,28.9,487.9,5,458.5,5z M138.7,47.6h319.8c5.9,0,10.7,4.8,10.7,10.7v151.3l-67.3-78.6
		c-7.1-8.4-17.5-12.9-28.6-13.1c-11,0.1-21.4,5-28.5,13.5l-79.2,95l-25.8-25.7c-14.6-14.6-38.3-14.6-52.9,0l-58.8,58.8V58.3
		C128.1,52.4,132.9,47.6,138.7,47.6z"/>
</g>
</svg>
