<?xml version="1.0" encoding="utf-8"?>
<!-- Generator: Adobe Illustrator 24.2.1, SVG Export Plug-In . SVG Version: 6.00 Build 0)  -->
<svg version="1.1" id="Layer_1" xmlns:svgjs="http://svgjs.com/svgjs"
	 xmlns="http://www.w3.org/2000/svg" xmlns:xlink="http://www.w3.org/1999/xlink" x="0px" y="0px" viewBox="0 0 512 512"
	 style="enable-background:new 0 0 512 512;" xml:space="preserve">
<style type="text/css">
	.st0{fill:#621708;stroke:#621708;stroke-width:2;stroke-miterlimit:10;}
</style>
<g>
	<g>
		<g>
			<g>
				<path class="st0" d="M265.9,367.9c12.2,0,22.1-9.9,22.1-22.1c0-12.2-9.9-22.1-22.1-22.1h-88.8c-12.2,0-22.1,9.9-22.1,22.1
					c0,12.2,9.9,22.1,22.1,22.1H265.9z M169.6,345.8c0-4.1,3.4-7.5,7.5-7.5h88.8c4.1,0,7.5,3.4,7.5,7.5c0,4.1-3.4,7.5-7.5,7.5h-88.8
					C173,353.2,169.6,349.9,169.6,345.8L169.6,345.8z"/>
				<path class="st0" d="M259.8,242.2c0,20.2,16.4,36.6,36.6,36.6c20.2,0,36.6-16.4,36.6-36.6s-16.4-36.6-36.6-36.6
					C276.3,205.6,259.8,222,259.8,242.2z M296.4,220.2c12.1,0,22,9.9,22,22s-9.9,22-22,22s-22-9.9-22-22S284.3,220.2,296.4,220.2z"
					/>
				<path class="st0" d="M146.5,205.6c-20.2,0-36.6,16.4-36.6,36.6s16.4,36.6,36.6,36.6s36.6-16.4,36.6-36.6
					S166.7,205.6,146.5,205.6z M146.5,264.2c-12.1,0-22-9.9-22-22s9.9-22,22-22s22,9.9,22,22S158.6,264.2,146.5,264.2z"/>
				<path class="st0" d="M256.6,472.8c4,0,7.3-3.3,7.3-7.3v-36.1c0-4-3.3-7.3-7.3-7.3h-72.3c-4,0-7.3,3.3-7.3,7.3v36.1
					c0,4,3.3,7.3,7.3,7.3H256.6z M191.7,436.6h57.6v21.5h-57.6V436.6z"/>
				<path class="st0" d="M497.7,99.4c4,0,7.3-3.3,7.3-7.3v-59C505,18.1,492.9,6,478,6H274.7c-14.9,0-27.1,12.1-27.1,27.1v113h-85.3
					c-4,0-7.3,3.3-7.3,7.3s3.3,7.3,7.3,7.3h85.3v2.5c0,4.5,1.1,8.7,3,12.4H113c-20.4,0-36.9,16.6-36.9,36.9v59.2
					c0,20.4,16.6,36.9,36.9,36.9h217c20.4,0,36.9-16.6,36.9-36.9v-59.2c0-8.4-2.8-16.1-7.5-22.3h22.4l0,160.4
					c0,17.7-14.4,32.1-32.1,32.1H93.2c-17.7,0-32.1-14.4-32.1-32.1V192.9c0-17.7,14.4-32.1,32.1-32.1h34.9c4,0,7.3-3.3,7.3-7.3
					s-3.3-7.3-7.3-7.3H93.2c-25.8,0-46.8,21-46.8,46.8v12.4H34C19.1,205.3,7,217.4,7,232.3v78.9c0,14.9,12.1,27.1,27.1,27.1h12.4
					v12.4c0,25.8,21,46.8,46.8,46.8h46.2c-15.2,12.2-24.9,30.9-24.9,51.9v5.8c0,4,3.3,7.3,7.3,7.3c4,0,7.3-3.3,7.3-7.3v-5.8
					c0-28.6,23.3-51.9,51.9-51.9h78.9c28.6,0,51.9,23.3,51.9,51.9v42h-20.9v-12.4c0-4-3.3-7.3-7.3-7.3s-7.3,3.3-7.3,7.3v12.4H164.7
					v-12.4c0-4-3.3-7.3-7.3-7.3s-7.3,3.3-7.3,7.3v12.4h-20.9v-2c0-4-3.3-7.3-7.3-7.3c-4,0-7.3,3.3-7.3,7.3v9.3c0,4,3.3,7.3,7.3,7.3
					h197.3c4,0,7.3-3.3,7.3-7.3v-49.3c0-21-9.8-39.7-24.9-51.9h48.2c25.8,0,46.8-21,46.8-46.8v-12.4h12.4
					c14.9,0,27.1-12.1,27.1-27.1v-78.9c0-14.5-11.4-26.3-25.8-27l18.9-15H478c14.9,0,27.1-12.1,27.1-27.1v-36.9c0-4-3.3-7.3-7.3-7.3
					s-7.3,3.3-7.3,7.3v36.9c0,6.8-5.6,12.4-12.4,12.4h-51.4c-1.6,0-3.3,0.6-4.5,1.6l-25.5,20.2V183c0-4-3.3-7.3-7.3-7.3H274.7
					c-6.8,0-12.4-5.6-12.4-12.4V33.1c0-6.8,5.6-12.4,12.4-12.4H478c6.8,0,12.4,5.6,12.4,12.4v59C490.4,96.1,493.6,99.4,497.7,99.4
					L497.7,99.4z M34,323.6c-6.8,0-12.4-5.6-12.4-12.4v-78.9c0-6.8,5.6-12.4,12.4-12.4h12.4v103.7L34,323.6L34,323.6z M421.3,232.3
					v78.9c0,6.8-5.6,12.4-12.4,12.4h-12.4V219.9h12.4C415.7,219.9,421.3,225.5,421.3,232.3L421.3,232.3z M352.3,212.6v59.2
					c0,12.3-10,22.3-22.3,22.3H113c-12.3,0-22.3-10-22.3-22.3v-59.2c0-12.3,10-22.3,22.3-22.3h161.8H330
					C342.3,190.3,352.3,200.3,352.3,212.6z"/>
				<path class="st0" d="M472.5,98.2c0-4-3.3-7.3-7.3-7.3H287.6c-4,0-7.3,3.3-7.3,7.3s3.3,7.3,7.3,7.3h177.6
					C469.2,105.5,472.5,102.2,472.5,98.2z"/>
				<path class="st0" d="M465.1,61.3H287.6c-4,0-7.3,3.3-7.3,7.3s3.3,7.3,7.3,7.3h177.6c4,0,7.3-3.3,7.3-7.3S469.2,61.3,465.1,61.3z
					"/>
				<path class="st0" d="M287.6,120.4c-4,0-7.3,3.3-7.3,7.3s3.3,7.3,7.3,7.3h108.5c4,0,7.3-3.3,7.3-7.3s-3.3-7.3-7.3-7.3H287.6z"/>
			</g>
		</g>
	</g>
</g>
</svg>
