<?xml version="1.0" encoding="utf-8"?>
<!-- Generator: Adobe Illustrator 24.2.1, SVG Export Plug-In . SVG Version: 6.00 Build 0)  -->
<svg version="1.1" id="Layer_1" xmlns:svgjs="http://svgjs.com/svgjs"
	 xmlns="http://www.w3.org/2000/svg" xmlns:xlink="http://www.w3.org/1999/xlink" x="0px" y="0px" viewBox="0 0 512 512"
	 style="enable-background:new 0 0 512 512;" xml:space="preserve">
<style type="text/css">
	.st0{fill:#621708;stroke:#621708;stroke-width:4;stroke-miterlimit:10;}
</style>
<g>
	<g>
		<g>
			<path class="st0" d="M474.5,297.4h-7.2v-65.1c0-10.3-5.1-19.4-13-25v-8.9c0-12.9-10.5-23.3-23.3-23.3h-5.4l20.6-30.3
				c6.9-10.2,4.3-24.1-5.9-31L300.2,18.4c-4.9-3.4-10.8-4.6-16.7-3.5c-5.8,1.1-10.9,4.4-14.3,9.3L148.3,201.7h-33.7l8.1-82.2
				c0.1-0.9,0.7-1.7,1.5-2c10.5-3.9,19.5-11.3,25.5-20.7c0.5-0.7,1.4-1.2,2.3-1.1l52.8,5.2c3.8,0.4,7.2-2.4,7.5-6.2
				s-2.4-7.2-6.2-7.5L153.5,82c-6.1-0.6-12,2.2-15.3,7.4c-4.4,6.9-11.1,12.3-18.8,15.2c-5.8,2.2-9.8,7.4-10.4,13.6l-8.3,83.5h-8.8
				l12.8-130c0.5-4.7,4.6-8.1,9.3-7.6l106.7,10.5c3.8,0.4,7.2-2.4,7.5-6.2c0.4-3.8-2.4-7.2-6.2-7.5L115.6,50.4
				c-12.2-1.2-23.2,7.8-24.4,20L80.8,175.1H63.2c-12.9,0-23.3,10.5-23.3,23.3v6c-10.5,4.8-17.8,15.5-17.8,27.8v234.6
				c0,16.9,13.7,30.6,30.6,30.6h384c16.9,0,30.6-13.7,30.6-30.6v-65.1h7.2c8.5,0,15.5-6.9,15.5-15.5v-73.5
				C489.9,304.3,483,297.4,474.5,297.4z M431,188.9L431,188.9c5.3,0,9.6,4.3,9.6,9.6v3.5c-1.3-0.2-2.6-0.3-3.9-0.3h-29.2l8.7-12.8
				H431z M280.6,32c1.3-1.9,3.2-3.2,5.5-3.6c0.5-0.1,1.1-0.2,1.6-0.2c1.7,0,3.4,0.5,4.8,1.5l140.1,95.5c3.9,2.6,4.9,8,2.2,11.8
				l-44,64.6h-10.6l21.6-31.7c3.5-5.1,3.8-11.7,0.8-17.1c-4-7.2-5.7-15.6-4.6-23.7c0.8-6.1-1.9-12-7-15.4l-72.6-49.5
				c-5.1-3.5-11.6-3.8-16.9-0.8c-7.2,4-15.6,5.5-23.8,4.4c-6-0.8-12.2,1.9-15.6,6.9l-86.5,126.9H165L280.6,32z M283.7,148.9
				c-30,0-54.6,23.4-56.6,52.8h-34.9l81.2-119.2c0,0,0,0,0,0c0.5-0.7,1.2-1.1,2-1.1c0.1,0,0.2,0,0.3,0c11.1,1.5,22.6-0.6,32.3-6
				c0.8-0.4,1.8-0.4,2.5,0.2l72.6,49.5c0.8,0.5,1.2,1.4,1.1,2.3c-1.4,11.1,0.8,22.5,6.3,32.3c0.4,0.8,0.4,1.8-0.1,2.6l-26.9,39.4
				h-23.3C338.2,172.2,313.6,148.9,283.7,148.9z M326.4,201.7h-85.6c2-21.9,20.4-39.1,42.8-39.1C306,162.6,324.5,179.8,326.4,201.7z
				 M53.7,198.5c0-5.3,4.3-9.6,9.6-9.6h16.3l-1.3,12.8H53.7V198.5z M35.8,232.3c0-9.3,7.5-16.8,16.8-16.8h384
				c9.3,0,16.8,7.5,16.8,16.8v19.1H35.8V232.3z M453.5,466.9c0,9.3-7.5,16.8-16.8,16.8h-384c-9.3,0-16.8-7.5-16.8-16.8v-19.1h37.1
				c3.8,0,6.9-3.1,6.9-6.9c0-3.8-3.1-6.9-6.9-6.9H35.8V265.2h417.7v32.2H388h0c-20.6,0-38.5,12-47,29.4c0,0.1-0.1,0.1-0.1,0.2
				c-0.1,0.1-0.1,0.3-0.2,0.5c-1,2.1-1.9,4.4-2.6,6.7c0,0,0,0,0,0c-1.5,4.9-2.3,10.1-2.3,15.5c0,28.8,23.4,52.2,52.2,52.2h0h65.4
				V434H117c-3.8,0-6.9,3.1-6.9,6.9s3.1,6.9,6.9,6.9h336.5V466.9z M476.2,386.3c0,0.9-0.8,1.7-1.7,1.7H388
				c-14.6,0-27.3-8.1-33.8-20.1c-0.3-0.5-0.6-1.1-0.8-1.7c-0.5-1.1-1-2.3-1.5-3.4c-1.5-4.1-2.3-8.6-2.3-13.2c0-4.6,0.8-9.1,2.3-13.2
				c0.4-1.2,0.9-2.3,1.5-3.4c0.3-0.6,0.6-1.1,0.8-1.7c6.5-12,19.2-20.1,33.8-20.1h86.4c0.9,0,1.7,0.8,1.7,1.7L476.2,386.3
				L476.2,386.3z"/>
		</g>
	</g>
	<g>
		<g>
			<path class="st0" d="M389.7,321.7c-15.4,0-27.9,12.5-27.9,27.9c0,15.4,12.5,27.9,27.9,27.9c15.4,0,27.9-12.5,27.9-27.9
				C417.6,334.2,405.1,321.7,389.7,321.7z M389.7,363.8c-7.8,0-14.2-6.4-14.2-14.2c0-7.8,6.4-14.2,14.2-14.2s14.2,6.4,14.2,14.2
				C403.8,357.4,397.5,363.8,389.7,363.8z"/>
		</g>
	</g>
</g>
</svg>
