<?xml version="1.0" encoding="utf-8"?>
<!-- Generator: Adobe Illustrator 24.2.1, SVG Export Plug-In . SVG Version: 6.00 Build 0)  -->
<svg version="1.1" id="Layer_1" xmlns:svgjs="http://svgjs.com/svgjs"
	 xmlns="http://www.w3.org/2000/svg" xmlns:xlink="http://www.w3.org/1999/xlink" x="0px" y="0px" viewBox="0 0 512 512"
	 style="enable-background:new 0 0 512 512;" xml:space="preserve">
<style type="text/css">
	.st0{fill:#621708;stroke:#621708;stroke-width:4;stroke-miterlimit:10;}
</style>
<g>
	<g>
		<path class="st0" d="M489.3,440c5.8-7.7,7.5-18.1,4-27.4l-6.7-17.8c-2.9-7.8-7.1-15.1-12.2-21.6c3.3-12.2,1.2-25.6-6.4-36.6
			c-13.9-20-35.7-32.2-60-33.6l-6.6-0.4c-0.9-11.4-7-21.8-16.4-28.2c3.8-5.9,5.9-13,6.2-20.7c0.4-12.7-4.3-24.7-13.1-33.8
			c-8-8.2-18.4-13.1-29.7-14c-9.3-48.3-42.4-88.9-87.9-107.8c0-2.5-0.3-5-0.9-7.6c6.1-2.6,15.4-9.6,27.6-20.8
			c5.1-4.4,3-13.4-3.5-15.1c-4.4-1.3-11.6-3.3-18.6-4.8c1.6-4.5,3.1-9.7,4.8-15.6c2-6.4-4.6-13-11-11c-5.9,1.6-11.1,3.2-15.6,4.8
			c-1.5-6.9-3.5-14.1-4.8-18.6c-1.7-6.5-10.7-8.6-15.1-3.5c-10.6,11.5-17.4,20.3-20.3,26.4c-11.8-3.5-22.8-0.7-31.7,8.3
			c-8.8,8.8-18,27.8-22.9,47.2c-0.8,3.2-1.6,6.9-2.3,11c-14,6-27,14.2-38.6,24.3c-3,2.6-3.3,7.1-0.7,10.1c2.6,3,7.1,3.3,10.1,0.7
			c8.6-7.5,18-13.7,28-18.8c0.3,8.9,2.4,17.5,8.2,23.2c6.2,6.2,15.7,8.2,25.3,8.2c9.2,0,18.5-1.8,25.2-3.5
			c19.4-4.9,38.4-14.1,47.2-23c2.5-2.5,4.5-5.1,6-7.9c40.6,17.6,70,54.6,77.8,98.2c-0.7,1-1.3,2-1.6,3.2
			c-2.7,8.4-8.7,15.4-16.6,19.3c-2.2-4.7-5.1-9-8.8-12.8c-8.8-9.1-20.7-14.1-33.4-14.1c-5.1-0.4-10.1,2.6-11.7,7.6
			c-2.7,8.4-8.7,15.4-16.6,19.3c-2.2-4.7-5.1-9-8.8-12.8c-8.8-9.1-20.7-14.1-33.4-14.1c-5.1-0.4-10.1,2.6-11.7,7.6
			c-2.7,8.4-8.7,15.4-16.6,19.3c-2.2-4.7-5.1-9-8.8-12.8c-8.8-9.1-20.7-14.1-33.4-14.1c-5.1-0.4-10.1,2.6-11.7,7.6
			c-2.7,8.4-8.7,15.4-16.6,19.3c-2.2-4.7-5.1-9-8.8-12.8c-6.2-6.3-13.8-10.7-22.1-12.7c3.8-18.4,11.5-36,22.6-51.3
			c2.3-3.2,1.6-7.6-1.6-10c-3.2-2.3-7.6-1.6-10,1.6C72.5,164.9,63.8,185,59.7,206c-4,0.6-7.4,3.5-8.6,7.5
			c-2.8,8.9-9.3,16.1-17.8,19.8c-6.9,3-12.3,8.8-14.8,15.8c-2.5,7-2.1,14.4,1.3,21c3.1,6,7.4,10.8,12.7,14.5
			c-1.2,3.7-1.8,7.5-1.8,11.4c0,28.3,23,51.4,51.4,51.4h83.3c-2.2,6.2-2.9,12.7-2.2,19c-8,8-14.3,17.8-18.2,28.4l-6.7,17.8
			c-3.5,9.3-1.8,19.7,4,27.4l-5,32.4c-2,13.1,3.8,25.5,15.3,32.2c11.4,6.7,25,5.9,35.5-2.3l18.7-14.6c8.9,2.8,18.7,1.2,26.3-4.7
			l9.2-7.1c6.4,4.7,14.2,7.2,22.1,7.2c5.9,0,11.9-1.4,17.4-4.3l6.3-3.4c4.6,2.6,9.8,4,15.4,4h31.9c5.6,0,10.8-1.4,15.4-4l6.3,3.4
			c5.5,2.9,11.5,4.3,17.4,4.3c6.3,0,12.5-1.6,18.1-4.7l5.9,4.6c7.6,5.9,17.4,7.5,26.3,4.7l18.7,14.6c10.5,8.2,24.2,9,35.5,2.3
			c11.5-6.7,17.3-19.1,15.3-32.2L489.3,440z M270.3,65.6c-8.5,7.3-14,10.9-16.1,11.8c-1-1.7-2.1-3.4-3.3-5.2c4-2.3,6.2-4.6,8.6-9.1
			C263,63.8,266.8,64.7,270.3,65.6z M245.6,58.5c-1.4,1.4-2.9,1.9-4.1,2.2c-2.8-3.1-6.1-6.4-9.2-9.3c0.3-1.5,1-2.8,2.1-3.9
			c1.3-1.2,7.3-4.2,18.9-7.8C249.7,51.2,246.8,57.2,245.6,58.5L245.6,58.5z M227.4,22.7c0.9,3.5,1.8,7.3,2.5,10.9
			c-4.4,2.4-6.6,4.4-8.9,8.2c-1.7-1.3-3.4-2.4-5.1-3.5C217,35.8,220.6,30.6,227.4,22.7L227.4,22.7z M240.7,109.9
			c-7,7-23.8,14.9-40.6,19.2c-17.4,4.4-31.9,4-36.9-0.9c-5-5-5.4-19.5-0.9-36.9c4.3-16.9,12.2-33.6,19.2-40.6
			c3.7-3.7,7.6-5.5,12-5.5c2.2,0,4.4,0.4,6.9,1.3c7.3,2.6,15.8,8.7,25.9,18.8s16.2,18.6,18.8,25.9
			C247.5,98.5,246.2,104.3,240.7,109.9L240.7,109.9z M320.9,246.3c11.5-5.1,20.5-14.5,24.9-26.2c8.4,0.3,16.2,3.7,22,9.8
			c6.1,6.3,9.3,14.6,9.1,23.4c-0.2,5.8-1.8,10.6-4.7,14.6l-4.7-2.2c-14.9-7-30.8-10.5-46.8-10.7c0.2-2.8,0.1-5.6-0.3-8.4
			C320.5,246.5,320.7,246.4,320.9,246.3L320.9,246.3z M250.4,246.3c11.5-5.1,20.5-14.5,24.9-26.2c8.4,0.3,16.2,3.7,22,9.8
			c6.1,6.3,9.3,14.6,9.1,23.4c0,0.8-0.1,1.7-0.2,2.5c-11.9,1.4-23.6,4.7-34.8,9.9c-3.6,1.8-14.2,6.3-17.3,8.5
			c-2.8-1.5-5.1-3.4-7.1-5.7c2.7-6.4,3.7-14.6,2.7-21.8C250,246.5,250.2,246.4,250.4,246.3L250.4,246.3z M179.9,246.3
			c11.5-5.1,20.5-14.5,24.9-26.2c8.4,0.3,16.2,3.7,22,9.8c6.1,6.3,9.3,14.6,9.1,23.4c-0.6,19.2-16.8,25.8-31.8,25.5
			c-12.8-0.2-21.8-3.6-27.5-10.3c2.7-6.4,3.7-14.6,2.7-21.9C179.6,246.5,179.7,246.4,179.9,246.3L179.9,246.3z M109.5,246.3
			c11.5-5.1,20.5-14.5,24.9-26.2c8.4,0.3,16.2,3.7,22,9.8c6.1,6.3,9.3,14.6,9.1,23.4c-0.6,19.2-16.8,25.8-31.8,25.5
			c-12.8-0.2-21.8-3.6-27.5-10.3c2.7-6.4,3.7-14.6,2.7-21.8C109.1,246.5,109.3,246.4,109.5,246.3L109.5,246.3z M31.9,253.9
			c1.2-3.4,3.8-6.1,7.1-7.6c11.5-5.1,20.5-14.5,24.9-26.2c8.4,0.3,16.2,3.7,22,9.8c6.1,6.3,9.3,14.6,9.1,23.4
			c-0.6,19.2-16.8,25.7-31.8,25.5c-15.5-0.3-25.6-5.3-30.7-15.2C30.9,260.6,30.7,257.1,31.9,253.9L31.9,253.9z M44.9,296
			c0-1.8,0.2-3.6,0.6-5.4c5.2,1.5,11,2.3,17.4,2.4c14.3,0.3,27-4.3,35.1-12.4c8.3,8,20.2,12.2,35.4,12.4c14.3,0.3,27-4.3,35.1-12.4
			c8.3,8,20.2,12.2,35.4,12.4c14.3,0.3,27-4.3,35.1-12.4c1.5,1.4,3.1,2.7,4.8,3.9c-3.6,5.3-5.9,11.6-6.4,18.1l-6.6,0.4
			c-22.8,1.3-43.5,12.2-57.5,30.1H82.1C61.6,333.1,44.9,316.5,44.9,296L44.9,296z M179.2,490.9c-6.9,5.4-14.6,4.2-19.6,1.3
			c-4.9-2.9-9.7-9.1-8.4-17.7l3.6-23.6l38.6,28.8L179.2,490.9z M246.1,459.9l-39.5-50.4c-2.4-3.1-6.9-3.6-10-1.2
			c-3.1,2.4-3.6,6.9-1.2,10l36.9,47l-8,6.2c-5.1,4-12.4,4.1-17.6,0.2l-50.2-37.5c-5.1-3.8-7.2-10.7-4.9-16.7l6.7-17.8
			c2.3-6.3,5.7-12.1,9.8-17.4c1.2,2.3,2.7,4.5,4.3,6.7c2.8,4.5,8.1,10,13.5,5.6c3.1-2.4,3.6-6.9,1.2-10l-3.5-4.4
			c-8.2-10.4-8.6-24.7-1-35.5c12.4-18.3,33.2-27.9,55.1-27.8c0.9,18.2,4.1,36.1,9.4,53.5l26.4,86.6c0.9,2.9,2.1,5.5,3.7,7.9
			C267,471.3,253.5,469.4,246.1,459.9L246.1,459.9z M363.7,466l-2.1-1.1c3.8-4.6,12.5-38.3,14.8-44.2c1.1-3.8-1-7.7-4.7-8.9
			c-3.8-1.1-7.7,1-8.9,4.7l-11.1,36.3c-2.2,7.3-8.8,12.1-16.4,12.1h-31.9c-7.6,0-14.2-4.9-16.4-12.1l-26.4-86.6
			c-6-19.7-9.1-40.2-9.1-60.8c0-9,5.3-17.2,13.4-21l12.5-5.9c26.6-12.5,57.2-12.5,83.9,0l12.5,5.8c8.1,3.8,13.4,12.1,13.4,21.1
			c0,20.6-3,41.1-9.1,60.8l-6.1,19.9c-1.1,3.8,1,7.7,4.7,8.9c3.8,1.1,7.7-1,8.9-4.7l6.1-19.9c5.3-17.4,8.5-35.4,9.4-53.5
			c21.9-0.1,42.7,9.6,55.1,27.8c7.5,10.9,7.1,25.1-1,35.5l-62.5,79.6C385.8,468.7,373.6,471.3,363.7,466L363.7,466z M407.2,471.6
			l-3.5-2.7c0.1-0.1,0.1-0.1,0.2-0.2l62.5-79.6c0.3-0.4,0.6-0.8,0.9-1.2c2.4,3.8,4.4,7.8,5.9,12l6.7,17.8c2.3,6,0.2,12.9-4.9,16.7
			l-50.2,37.5C419.6,475.7,412.4,475.6,407.2,471.6L407.2,471.6z M471.8,492.2c-4.9,2.9-12.7,4.1-19.6-1.3L438,479.8l38.6-28.8
			l3.6,23.6C481.6,483.2,476.8,489.3,471.8,492.2L471.8,492.2z"/>
		<circle class="st0" cx="192.6" cy="65.4" r="7.2"/>
		<circle class="st0" cx="213.4" cy="86.2" r="7.2"/>
		<circle class="st0" cx="183.6" cy="116.1" r="7.2"/>
		<circle class="st0" cx="188.2" cy="90.6" r="7.2"/>
		<circle class="st0" cx="209" cy="111.4" r="7.2"/>
	</g>
</g>
</svg>
