<?xml version="1.0" encoding="utf-8"?>
<!-- Generator: Adobe Illustrator 24.2.1, SVG Export Plug-In . SVG Version: 6.00 Build 0)  -->
<svg version="1.1" id="Layer_1" xmlns="http://www.w3.org/2000/svg" xmlns:xlink="http://www.w3.org/1999/xlink" x="0px" y="0px"
	 viewBox="0 0 600 600" style="enable-background:new 0 0 600 600;" xml:space="preserve">
<style type="text/css">
	.st0{fill:#255766;}
	.st1{fill:#193E4C;}
	.st2{fill:#022B3A;}
	.st3{fill:#14353F;}
	.st4{fill:#001C2D;}
	.st5{enable-background:new    ;}
	.st6{fill:#FFFFFF;}
	.st7{fill:#FF7031;}
</style>
<g>
	<path class="st0" d="M245.1,69.5l13,72.8l-62.5,120.4L86.9,203.2l-22.6-67.9c1.6-2.1,3.8-3.7,6.9-4.8L245.1,69.5z"/>
	<path class="st1" d="M427.5,7.9l23.4,77.4l-46.5,104.2L290,141.7l-44.9-72.2l174-61.1C422.2,7.4,424.9,7.2,427.5,7.9z"/>
	<path class="st1" d="M404.4,189.5l-92.2,71.4l-116.6,1.8L245,69.5L404.4,189.5z"/>
	<path class="st2" d="M404.4,189.5l-159.3-120l67.2,191.4L404.4,189.5z"/>
	<path class="st0" d="M404.4,189.5l45,160l-21.2,241.9L260.6,415.8l-64.9-153.1L404.4,189.5z"/>
	<path class="st1" d="M428.3,591.4l21.2-241.9l-45-160l-104.4,36.6L428.3,591.4z"/>
	<g id="Diamond_12_">
		<g>
			<path class="st3" d="M597,121.9l-84.6,68.8l-107.9-1.2l23-181.6c4,0.2,6.9,1.9,8,2.7c55.6,37.1,98.8,65,154.4,102.1
				C592.8,114.4,595.4,117.4,597,121.9z"/>
		</g>
	</g>
	<path class="st1" d="M195.7,262.7l-83.5,68.4l-109-0.8c-1.6-4.5-1.4-8.5-0.2-11.7c20.2-63.8,36.5-112.5,56.7-176.2
		c0.3-1.3,1.6-4.5,4.6-7.1L195.7,262.7z"/>
	<path class="st4" d="M597,121.9c1.2,3.5,1.5,7.7,0,12.1c-56.3,161.2-100.7,284.7-157.4,446c-0.9,3-3.9,8.8-11.2,11.4l-23.9-401.9
		L597,121.9z"/>
	<path class="st2" d="M428.3,591.4c-7.3,2.6-13.3,0-15.9-1.8C267.3,499,155.5,430.4,10.8,339.8c-4-2.5-6.4-6-7.6-9.4l192.5-67.6
		L428.3,591.4z"/>
</g>
<g class="st5">
	<path class="st6" d="M308.6,390.7c-8.4,4.3-17.1,7.6-26.1,9.9c-9,2.3-18.4,3.5-28.1,3.5c-16.1,0-31.2-3-45.2-9
		c-14.1-6-26.4-14.3-36.9-24.9c-10.6-10.6-18.8-22.9-24.9-37.2c-6-14.2-9-29.4-9-45.5c0-16.1,3-31.2,9-45.2
		c6-14.1,14.3-26.4,24.9-36.9c10.6-10.6,22.9-18.8,36.9-24.9c14.1-6,29.1-9,45.2-9s31.2,3,45.2,9c14.1,6,26.4,14.3,36.9,24.9
		s18.9,22.9,25.1,36.9c6.2,14.1,9.3,29.1,9.3,45.2v93c0,6.4-2.3,11.9-6.8,16.6c-4.5,4.7-10.1,7-16.8,7c-6.7,0-12.2-2.2-16.6-6.7
		c-4.4-4.5-6.7-9.7-7-15.7c-4.4,3.3-9.2,6.3-14.6,9H308.6z M185.5,287.8c0,9.8,1.8,18.8,5.5,27.2s8.6,15.8,14.8,22.2
		c6.2,6.4,13.4,11.3,21.8,14.9c8.3,3.5,17.4,5.3,27,5.3c9.7,0,18.7-1.8,27-5.3c8.3-3.5,15.7-8.5,22-14.9
		c6.3-6.4,11.3-13.8,14.8-22.2s5.3-17.5,5.3-27.2c0-9.4-1.8-18.4-5.3-27s-8.4-16-14.8-22.2c-6.3-6.2-13.7-11.2-22-14.9
		c-8.3-3.7-17.4-5.6-27-5.6c-9.7,0-18.7,1.9-27,5.6c-8.3,3.7-15.6,8.7-21.8,14.9c-6.2,6.2-11.1,13.6-14.8,22.2
		S185.5,278.4,185.5,287.8z"/>
	<path class="st6" d="M418.4,171.5c-6.4,0-11.9,2.3-16.5,6.8c-4.6,4.5-6.9,10.1-6.9,16.8v185.4c0,6.7,2.3,12.3,6.9,16.8
		c4.6,4.5,10.1,6.8,16.5,6.8c6.8,0,12.4-2.3,17-6.8s6.9-10.1,6.9-16.8V195.1c0-6.7-2.3-12.3-6.9-16.8
		C430.9,173.7,425.2,171.5,418.4,171.5z"/>
</g>
<circle class="st7" cx="418.7" cy="126" r="26"/>
</svg>
