<?xml version="1.0" encoding="utf-8"?>
<!-- Generator: Adobe Illustrator 24.2.1, SVG Export Plug-In . SVG Version: 6.00 Build 0)  -->
<svg version="1.1" id="Layer_1" xmlns="http://www.w3.org/2000/svg" xmlns:xlink="http://www.w3.org/1999/xlink" x="0px" y="0px"
	 viewBox="0 0 256 256" style="enable-background:new 0 0 256 256;" xml:space="preserve">
<style type="text/css">
	.st0{fill:#255766;}
	.st1{fill:#193E4C;}
	.st2{fill:#022B3A;}
	.st3{fill:#14353F;}
	.st4{fill:#001C2D;}
	.st5{enable-background:new    ;}
	.st6{fill:#FFFFFF;}
	.st7{fill:#FF7031;}
</style>
<g>
	<path class="st0" d="M104.4,29l5.6,31.3L83.2,112L36.5,86.4l-9.7-29.2c0.7-0.9,1.6-1.6,3-2.1L104.4,29z"/>
	<path class="st1" d="M182.8,2.5l10.1,33.2l-20,44.8L123.7,60l-19.3-31l74.7-26.2C180.5,2.3,181.7,2.2,182.8,2.5z"/>
	<path class="st1" d="M172.9,80.5l-39.6,30.7L83.2,112l21.2-83L172.9,80.5z"/>
	<path class="st2" d="M172.9,80.5L104.4,29l28.9,82.2L172.9,80.5z"/>
	<path class="st0" d="M172.9,80.5l19.3,68.7l-9.1,103.9l-72-75.4L83.2,112L172.9,80.5z"/>
	<path class="st1" d="M183.1,253.2l9.1-103.9l-19.3-68.7l-44.8,15.7L183.1,253.2z"/>
	<g id="Diamond_12_">
		<g>
			<path class="st3" d="M255.6,51.5L219.3,81l-46.3-0.5l9.9-78c1.7,0.1,3,0.8,3.4,1.2c23.9,15.9,42.4,27.9,66.3,43.9
				C253.8,48.3,254.9,49.6,255.6,51.5z"/>
		</g>
	</g>
	<path class="st1" d="M83.2,112l-35.9,29.4L0.5,141c-0.7-1.9-0.6-3.7-0.1-5c8.7-27.4,15.7-48.3,24.4-75.7c0.1-0.6,0.7-1.9,2-3
		L83.2,112z"/>
	<path class="st4" d="M255.6,51.5c0.5,1.5,0.6,3.3,0,5.2C231.4,125.9,212.3,179,188,248.3c-0.4,1.3-1.7,3.8-4.8,4.9L172.9,80.5
		L255.6,51.5z"/>
	<path class="st2" d="M183.1,253.2c-3.1,1.1-5.7,0-6.8-0.8C114,213.5,65.9,184,3.8,145.1c-1.7-1.1-2.7-2.6-3.3-4l82.7-29
		L183.1,253.2z"/>
</g>
<g class="st5">
	<path class="st6" d="M131.7,167c-3.6,1.8-7.3,3.3-11.2,4.3c-3.9,1-7.9,1.5-12.1,1.5c-6.9,0-13.4-1.3-19.4-3.9
		c-6.1-2.6-11.3-6.1-15.9-10.7c-4.6-4.6-8.1-9.8-10.7-16c-2.6-6.1-3.9-12.6-3.9-19.5c0-6.9,1.3-13.4,3.9-19.4
		c2.6-6.1,6.1-11.3,10.7-15.9c4.6-4.6,9.8-8.1,15.9-10.7c6.1-2.6,12.5-3.9,19.4-3.9c6.9,0,13.4,1.3,19.4,3.9
		c6.1,2.6,11.3,6.1,15.9,10.7c4.5,4.6,8.1,9.8,10.8,15.9c2.7,6.1,4,12.5,4,19.4v39.9c0,2.7-1,5.1-2.9,7.1s-4.3,3-7.2,3
		s-5.2-0.9-7.1-2.9c-1.9-1.9-2.9-4.2-3-6.7c-1.9,1.4-4,2.7-6.3,3.9L131.7,167L131.7,167z M78.8,122.8c0,4.2,0.8,8.1,2.4,11.7
		c1.6,3.6,3.7,6.8,6.4,9.5s5.8,4.9,9.4,6.4c3.6,1.5,7.5,2.3,11.6,2.3c4.2,0,8-0.8,11.6-2.3c3.6-1.5,6.7-3.7,9.5-6.4
		c2.7-2.7,4.9-5.9,6.4-9.5c1.5-3.6,2.3-7.5,2.3-11.7c0-4-0.8-7.9-2.3-11.6c-1.5-3.7-3.6-6.9-6.4-9.5c-2.7-2.7-5.9-4.8-9.5-6.4
		c-3.6-1.6-7.5-2.4-11.6-2.4c-4.2,0-8,0.8-11.6,2.4s-6.7,3.7-9.4,6.4s-4.8,5.8-6.4,9.5C79.6,114.9,78.8,118.7,78.8,122.8z"/>
	<path class="st6" d="M178.9,72.8c-2.7,0-5.1,1-7.1,2.9s-3,4.3-3,7.2v79.6c0,2.9,1,5.3,3,7.2s4.3,2.9,7.1,2.9c2.9,0,5.3-1,7.3-2.9
		c2-1.9,3-4.3,3-7.2V82.9c0-2.9-1-5.3-3-7.2C184.2,73.7,181.8,72.8,178.9,72.8z"/>
</g>
<circle class="st7" cx="179" cy="53.3" r="11.2"/>
</svg>
