<?xml version="1.0" standalone="no"?>
<!DOCTYPE svg PUBLIC "-//W3C//DTD SVG 20010904//EN"
 "http://www.w3.org/TR/2001/REC-SVG-20010904/DTD/svg10.dtd">
<svg version="1.0" xmlns="http://www.w3.org/2000/svg"
 width="1200.000000pt" height="1200.000000pt" viewBox="0 0 1200.000000 1200.000000"
 preserveAspectRatio="xMidYMid meet">
<metadata>
Created by potrace 1.11, written by Peter Selinger 2001-2013
</metadata>
<g transform="translate(0.000000,1200.000000) scale(0.100000,-0.100000)"
fill="#000000" stroke="none">
<path d="M8365 11826 c-38 -13 -146 -51 -240 -84 -93 -33 -237 -83 -320 -112
-82 -28 -159 -55 -170 -60 -11 -5 -119 -43 -240 -85 -121 -42 -301 -105 -400
-140 -99 -35 -286 -100 -415 -145 -129 -44 -244 -85 -255 -90 -11 -5 -81 -30
-155 -55 -74 -26 -216 -75 -315 -110 -99 -35 -277 -97 -395 -138 -118 -42
-294 -103 -390 -137 -96 -34 -220 -77 -275 -97 -55 -19 -174 -61 -265 -93
-162 -57 -597 -210 -955 -335 -99 -35 -263 -92 -365 -128 -102 -36 -252 -88
-335 -117 -82 -28 -159 -55 -170 -60 -11 -5 -119 -43 -240 -85 -121 -42 -283
-99 -360 -127 -77 -28 -144 -51 -150 -52 -5 -1 -55 -18 -110 -38 -55 -20 -161
-57 -235 -83 -207 -71 -261 -96 -307 -138 -67 -62 -98 -122 -153 -297 -29 -91
-59 -185 -67 -210 -8 -25 -16 -52 -18 -60 -2 -8 -24 -76 -48 -150 -25 -74 -59
-180 -77 -235 -34 -108 -214 -667 -260 -805 -15 -47 -58 -179 -95 -295 -37
-115 -87 -268 -110 -340 -50 -153 -182 -563 -290 -900 -42 -132 -91 -280 -107
-330 -62 -185 -37 -336 74 -442 34 -32 95 -72 397 -258 9 -6 41 -26 72 -45 30
-19 64 -40 75 -47 44 -27 332 -207 364 -228 71 -46 125 -80 135 -85 10 -5 225
-138 330 -205 54 -34 193 -121 850 -530 237 -147 500 -311 585 -364 85 -53
162 -100 172 -106 26 -15 135 -83 193 -120 45 -29 134 -84 340 -211 39 -24 75
-48 82 -54 7 -5 14 -10 17 -10 4 0 289 -175 461 -284 27 -17 57 -35 67 -41 10
-5 104 -64 209 -130 106 -66 204 -127 218 -135 28 -16 274 -169 331 -205 84
-54 231 -145 235 -145 3 0 24 -13 47 -29 24 -16 90 -58 148 -94 169 -103 692
-428 730 -452 30 -20 204 -127 250 -154 28 -17 424 -264 490 -306 36 -23 108
-68 160 -100 52 -32 111 -68 130 -80 262 -171 1057 -656 1094 -668 176 -60
389 41 452 214 24 66 145 410 154 439 5 14 34 97 65 185 32 88 63 178 70 200
8 22 32 92 55 155 23 63 48 135 56 160 8 25 19 54 24 65 4 11 14 36 20 55 12
36 80 230 190 540 34 96 90 256 125 355 35 99 87 245 115 325 67 188 172 483
359 1015 51 143 95 267 98 275 3 8 7 20 9 25 5 18 45 130 53 150 5 11 30 81
56 155 66 192 104 297 125 355 11 28 48 133 84 235 63 180 138 392 238 675 28
77 54 151 58 165 5 14 29 84 55 155 26 72 62 175 82 230 19 55 86 246 150 425
64 179 121 343 128 365 7 22 32 92 55 155 23 63 47 133 55 155 7 22 41 119 75
215 34 96 72 204 85 240 12 36 57 164 99 285 43 121 136 387 207 590 72 204
141 399 154 435 65 182 75 220 71 300 -2 61 -9 90 -33 141 -41 86 -78 121
-213 204 -8 6 -42 28 -74 50 -32 22 -65 45 -75 50 -9 6 -137 91 -286 189 -911
604 -1295 856 -1305 856 -4 0 -10 4 -12 8 -1 5 -55 42 -118 83 -63 40 -117 76
-120 79 -8 8 -69 50 -73 50 -3 0 -222 145 -488 321 -266 177 -502 328 -524
336 -22 8 -76 16 -120 19 -66 3 -92 0 -150 -20z"/>
</g>
</svg>
